<svg width="13" height="16" viewBox="0 0 13 16" fill="none" xmlns="http://www.w3.org/2000/svg">
<path d="M6.44472 5.58503L5.10068 6.77211C5.27835 7.37074 5.52652 7.94687 5.84015 8.48874C6.16728 9.02666 6.56147 9.52219 7.01354 9.9638L8.75413 9.43585C9.72925 9.13988 10.7938 9.44385 11.4422 10.2038L12.4336 11.3653C12.835 11.8315 13.0362 12.4333 12.9946 13.0431C12.9531 13.6529 12.672 14.2228 12.2109 14.6321C10.5939 16.0848 8.10405 16.576 6.23995 15.1345C4.60088 13.8654 3.21453 12.3087 2.15094 10.5429C1.08464 8.78591 0.370728 6.84378 0.0479279 4.8219C-0.309616 2.54693 1.38222 0.726303 3.49173 0.105564C4.74964 -0.2656 6.09205 0.371138 6.55361 1.55822L7.09805 2.95809C7.4556 3.8796 7.19881 4.91949 6.44472 5.58503Z" fill="#F6F6F6"/>
</svg>
